HIERARCHY
ROOT Hips
{
  OFFSET 5.72205e-005 65.662 3.42586
  CHANNELS 6 Xposition Yposition Zposition Zrotation Xrotation Yrotation
  JOINT Chest
  {
    OFFSET 0 8.7983 -4.7612
    CHANNELS 3 Zrotation Xrotation Yrotation
    JOINT Chest2
    {
      OFFSET 0 8.0291 0.4195
      CHANNELS 3 Zrotation Xrotation Yrotation
      JOINT Chest3
      {
        OFFSET 0 9.9351 -2.2114
        CHANNELS 3 Zrotation Xrotation Yrotation
        JOINT Neck
        {
          OFFSET 0 22.3885 -0.4656
          CHANNELS 3 Zrotation Xrotation Yrotation
          JOINT Head
          {
            OFFSET -0.0001 12.643 3.4389
            CHANNELS 3 Zrotation Xrotation Yrotation
            End Site
            {
              OFFSET 0.0001 17.6655 0.5274
            }
          }
        }
        JOINT LeftCollar
        {
          OFFSET 2.2603 21.606 7.4023
          CHANNELS 3 Zrotation Xrotation Yrotation
          JOINT LeftShoulder
          {
            OFFSET 13.5163 -1.1332 -5.0146
            CHANNELS 3 Zrotation Xrotation Yrotation
            JOINT LeftElbow
            {
              OFFSET -0.0995 -28.05 -0.2431
              CHANNELS 3 Zrotation Xrotation Yrotation
              JOINT LeftWrist
              {
                OFFSET 0.0679 -23.3996 -0.1402
                CHANNELS 3 Zrotation Xrotation Yrotation
                JOINT LeftFinger1
                {
                  OFFSET 0.7932 -9.069 2.5189
                  CHANNELS 3 Zrotation Xrotation Yrotation
                  JOINT LeftFinger11
                  {
                    OFFSET -0.8272 -3.3923 0.5977
                    CHANNELS 3 Zrotation Xrotation Yrotation
                    JOINT LeftFinger12
                    {
                      OFFSET -0.5649 -2.3158 0.4082
                      CHANNELS 3 Zrotation Xrotation Yrotation
                      End Site
                      {
                        OFFSET -0.4919 -1.6479 0.2673
                      }
                    }
                  }
                }
                JOINT LeftFinger2
                {
                  OFFSET 0.9159 -9.2044 0.2193
                  CHANNELS 3 Zrotation Xrotation Yrotation
                  JOINT LeftFinger21
                  {
                    OFFSET 0.0117 -4.1944 -0.0248
                    CHANNELS 3 Zrotation Xrotation Yrotation
                    JOINT LeftFinger22
                    {
                      OFFSET 0.0071 -2.3249 -0.0142
                      CHANNELS 3 Zrotation Xrotation Yrotation
                      End Site
                      {
                        OFFSET -0.1475 -2.0882 0.0028
                      }
                    }
                  }
                }
                JOINT LeftFinger3
                {
                  OFFSET 0.6113 -8.7231 -2.0637
                  CHANNELS 3 Zrotation Xrotation Yrotation
                  JOINT LeftFinger31
                  {
                    OFFSET -0.1927 -3.8059 -0.2383
                    CHANNELS 3 Zrotation Xrotation Yrotation
                    JOINT LeftFinger32
                    {
                      OFFSET -0.1091 -2.1688 -0.1362
                      CHANNELS 3 Zrotation Xrotation Yrotation
                      End Site
                      {
                        OFFSET -0.2358 -1.9176 -0.0906
                      }
                    }
                  }
                }
                JOINT LeftFinger4
                {
                  OFFSET -0.6151 -8.0947 -3.5641
                  CHANNELS 3 Zrotation Xrotation Yrotation
                  JOINT LeftFinger41
                  {
                    OFFSET -0.4882 -2.341 -0.6462
                    CHANNELS 3 Zrotation Xrotation Yrotation
                    JOINT LeftFinger42
                    {
                      OFFSET -0.3575 -1.7167 -0.4742
                      CHANNELS 3 Zrotation Xrotation Yrotation
                      End Site
                      {
                        OFFSET -0.4187 -1.5237 -0.3496
                      }
                    }
                  }
                }
                JOINT LeftFinger0
                {
                  OFFSET -1.42 -1.8761 1.4223
                  CHANNELS 3 Zrotation Xrotation Yrotation
                  JOINT LeftFinger01
                  {
                    OFFSET -1.1471 -3.4929 2.6334
                    CHANNELS 3 Zrotation Xrotation Yrotation
                    JOINT LeftFinger02
                    {
                      OFFSET -0.823 -2.3 1.6571
                      CHANNELS 3 Zrotation Xrotation Yrotation
                      End Site
                      {
                        OFFSET -0.5822 -1.6914 1.1582
                      }
                    }
                  }
                }
              }
            }
          }
        }
        JOINT RightCollar
        {
          OFFSET -2.2603 21.606 7.4023
          CHANNELS 3 Zrotation Xrotation Yrotation
          JOINT RightShoulder
          {
            OFFSET -13.5187 -1.1334 -5.0155
            CHANNELS 3 Zrotation Xrotation Yrotation
            JOINT RightElbow
            {
              OFFSET 0.0994 -28.0499 -0.2431
              CHANNELS 3 Zrotation Xrotation Yrotation
              JOINT RightWrist
              {
                OFFSET -0.0679 -23.3996 -0.1402
                CHANNELS 3 Zrotation Xrotation Yrotation
                JOINT RightFinger1
                {
                  OFFSET -0.7932 -9.0691 2.5189
                  CHANNELS 3 Zrotation Xrotation Yrotation
                  JOINT RightFinger11
                  {
                    OFFSET 0.8272 -3.3923 0.5977
                    CHANNELS 3 Zrotation Xrotation Yrotation
                    JOINT RightFinger12
                    {
                      OFFSET 0.565 -2.3158 0.4082
                      CHANNELS 3 Zrotation Xrotation Yrotation
                      End Site
                      {
                        OFFSET 0.4919 -1.6479 0.2673
                      }
                    }
                  }
                }
                JOINT RightFinger2
                {
                  OFFSET -0.916 -9.2044 0.2193
                  CHANNELS 3 Zrotation Xrotation Yrotation
                  JOINT RightFinger21
                  {
                    OFFSET -0.0117 -4.1944 -0.0248
                    CHANNELS 3 Zrotation Xrotation Yrotation
                    JOINT RightFinger22
                    {
                      OFFSET -0.0071 -2.3249 -0.0142
                      CHANNELS 3 Zrotation Xrotation Yrotation
                      End Site
                      {
                        OFFSET 0.1475 -2.0882 0.0028
                      }
                    }
                  }
                }
                JOINT RightFinger3
                {
                  OFFSET -0.6113 -8.7231 -2.0637
                  CHANNELS 3 Zrotation Xrotation Yrotation
                  JOINT RightFinger31
                  {
                    OFFSET 0.1927 -3.8059 -0.2383
                    CHANNELS 3 Zrotation Xrotation Yrotation
                    JOINT RightFinger32
                    {
                      OFFSET 0.1091 -2.1688 -0.1362
                      CHANNELS 3 Zrotation Xrotation Yrotation
                      End Site
                      {
                        OFFSET 0.2358 -1.9176 -0.0906
                      }
                    }
                  }
                }
                JOINT RightFinger4
                {
                  OFFSET 0.6151 -8.0947 -3.564
                  CHANNELS 3 Zrotation Xrotation Yrotation
                  JOINT RightFinger41
                  {
                    OFFSET 0.4882 -2.341 -0.6462
                    CHANNELS 3 Zrotation Xrotation Yrotation
                    JOINT RightFinger42
                    {
                      OFFSET 0.3574 -1.7166 -0.4742
                      CHANNELS 3 Zrotation Xrotation Yrotation
                      End Site
                      {
                        OFFSET 0.4187 -1.5237 -0.3496
                      }
                    }
                  }
                }
                JOINT RightFinger0
                {
                  OFFSET 1.4199 -1.8761 1.4221
                  CHANNELS 3 Zrotation Xrotation Yrotation
                  JOINT RightFinger01
                  {
                    OFFSET 1.1472 -3.4929 2.6336
                    CHANNELS 3 Zrotation Xrotation Yrotation
                    JOINT RightFinger02
                    {
                      OFFSET 0.8229 -2.3 1.6571
                      CHANNELS 3 Zrotation Xrotation Yrotation
                      End Site
                      {
                        OFFSET 0.5822 -1.6914 1.1582
                      }
                    }
                  }
                }
              }
            }
          }
        }
      }
    }
  }
  JOINT RightHip
  {
    OFFSET -9.412 3.9771 -0.7758
    CHANNELS 3 Zrotation Xrotation Yrotation
    JOINT RightKnee
    {
      OFFSET -0.7531 -40.938 0
      CHANNELS 3 Zrotation Xrotation Yrotation
      JOINT RightAnkle
      {
        OFFSET 0 -40.1986 0
        CHANNELS 3 Zrotation Xrotation Yrotation
        JOINT RightToe
        {
          OFFSET 0 -4.4182 9.239
          CHANNELS 3 Zrotation Xrotation Yrotation
          End Site
          {
            OFFSET 0 0 6.1981
          }
        }
      }
    }
  }
  JOINT LeftHip
  {
    OFFSET 9.4119 3.9773 -0.7758
    CHANNELS 3 Zrotation Xrotation Yrotation
    JOINT LeftKnee
    {
      OFFSET 0.7532 -40.9383 0
      CHANNELS 3 Zrotation Xrotation Yrotation
      JOINT LeftAnkle
      {
        OFFSET 0 -40.1986 0
        CHANNELS 3 Zrotation Xrotation Yrotation
        JOINT LeftToe
        {
          OFFSET 0 -4.4182 9.239
          CHANNELS 3 Zrotation Xrotation Yrotation
          End Site
          {
            OFFSET 0 0 6.1981
          }
        }
      }
    }
  }
}
MOTION
Frames:	6
Frame Time:	0.0333333
39.8401 14.0094 21.7419 9.89299e-009 65.274 9.54083e-007 -0.327331 16.2481 -0.0873398 -0.670955 32.4966 -0.0781671 -0.670951 32.4964 -0.0781682 -11.0912 -29.7339 40.6874 15.373 -18.8012 23.5729 -7.16834 -6.03346 -17.091 75.1336 -64.2339 76.8037 -51.1814 -9.57808 -90.0355 -72.0597 -22.7052 5.97686 4.60894e-006 -1.03229e-006 -2.06929e-006 -8.27351e-006 3.78385e-006 -1.12095e-006 8.7506e-006 -2.22923e-006 3.46876e-006 4.60894e-006 -1.03229e-006 -2.06929e-006 -0.012844 0.00233063 9.11736e-005 -8.5172e-006 1.36845e-006 -7.27277e-006 4.60894e-006 -1.03229e-006 -2.06929e-006 -0.0160512 0.00299339 0.000858459 7.10657e-007 -4.60079e-007 -1.45581e-006 4.60894e-006 -1.03229e-006 -2.06929e-006 -0.0125306 0.00310612 0.00281361 8.14218e-006 -6.54311e-007 5.43909e-006 4.60894e-006 -1.03229e-006 -2.06929e-006 -8.27351e-006 3.78385e-006 -1.12095e-006 8.7506e-006 -2.22923e-006 3.46876e-006 6.84089 -6.64183 15.3653 -68.8646 -68.1211 -71.1471 45.2395 -11.0668 89.677 72.2484 -22.1217 -2.12766 -5.73001e-006 3.27857e-006 4.08625e-006 4.77083e-015 6.36111e-015 -9.54166e-015 -9.79756e-006 -4.14677e-006 -7.81133e-006 -5.73001e-006 3.27857e-006 4.08625e-006 0.0129136 0.00230657 -8.78255e-005 -1.65279e-006 1.19713e-006 2.79577e-006 -5.73001e-006 3.27857e-006 4.08625e-006 0.0163449 0.00303487 -0.00088423 -1.88387e-006 -1.55401e-006 -3.78935e-008 -5.73001e-006 3.27857e-006 4.08625e-006 0.0146129 0.00368291 -0.00327306 -2.31999e-006 -1.58915e-006 -1.96103e-006 -5.73001e-006 3.27857e-006 4.08625e-006 4.77083e-015 6.36111e-015 -9.54166e-015 -9.79756e-006 -4.14677e-006 -7.81133e-006 175.559 -83.4936 175.347 -177.654 21.8693 169.451 12.7082 -28.0845 20.9109 -6.31607e-007 1.41425e-007 1.63312e-006 -175.424 -83.5185 -175.215 177.667 21.8801 -169.464 -12.7148 -28.0873 -20.9165 -3.31043e-032 7.95139e-016 2.38542e-015 
39.8401 13.9848 21.7275 -4.7816e-008 65.0489 1.10273e-006 -0.327518 16.3231 -0.086793 -0.671842 32.6467 -0.0763925 -0.671837 32.6465 -0.076393 -11.3548 -29.7609 40.5485 15.1927 -18.5734 23.4517 -7.16101 -6.01569 -17.0897 75.1335 -64.2339 76.8036 -51.3699 -9.5799 -90.0705 -71.9663 -22.5721 6.1832 4.76673e-007 1.54827e-006 2.34846e-006 1.18679e-006 8.54515e-007 8.93752e-007 5.32012e-006 4.15045e-006 -3.52565e-006 4.76673e-007 1.54827e-006 2.34846e-006 -0.0128192 0.00232477 8.40759e-005 -6.27335e-006 2.99297e-006 -1.17151e-006 4.76673e-007 1.54827e-006 2.34846e-006 -0.0160213 0.00299011 0.000856698 -1.59028e-015 2.66679e-006 -0 4.76673e-007 1.54827e-006 2.34846e-006 -0.012546 0.00311726 0.00281712 9.07935e-025 -5.45197e-009 9.54166e-015 4.76673e-007 1.54827e-006 2.34846e-006 1.18679e-006 8.54515e-007 8.93752e-007 5.32012e-006 4.15045e-006 -3.52565e-006 6.89394 -6.78858 15.1897 -68.8646 -68.1211 -71.1471 45.7325 -11.0957 89.7714 72.1713 -21.9719 -2.47964 1.59028e-015 -3.18055e-015 3.18055e-015 1.59028e-015 -6.36111e-015 3.18055e-015 -1.59028e-015 0 -0 1.59028e-015 -3.18055e-015 3.18055e-015 0.0129323 0.00231132 -8.31106e-005 -3.18055e-015 -6.36111e-015 6.36111e-015 1.59028e-015 -3.18055e-015 3.18055e-015 0.0163042 0.00303143 -0.000872902 6.36111e-015 1.27222e-014 -3.18055e-015 1.59028e-015 -3.18055e-015 3.18055e-015 0.0145893 0.00368404 -0.00326779 -1.59028e-015 -1.27222e-014 3.18055e-015 1.59028e-015 -3.18055e-015 3.18055e-015 1.59028e-015 -6.36111e-015 3.18055e-015 -1.59028e-015 0 -0 175.556 -83.4985 175.344 -177.654 21.8744 169.451 12.7081 -28.0843 20.9107 8.45171e-007 1.05993e-008 9.15506e-008 -175.422 -83.5211 -175.213 177.667 21.883 -169.464 -12.7146 -28.0871 -20.9163 2.21941e-006 -7.2726e-006 1.12727e-006 
39.8401 13.9604 21.7131 4.33991e-007 64.8237 6.45833e-007 -0.327707 16.3982 -0.086246 -0.672735 32.7967 -0.074613 -0.672731 32.7965 -0.0746141 -11.6185 -29.7873 40.4093 15.0132 -18.3453 23.3313 -7.15369 -5.99791 -17.0885 75.1335 -64.2339 76.8036 -51.5583 -9.5816 -90.1055 -71.8735 -22.4386 6.38912 1.59028e-015 -3.18055e-015 -3.18055e-015 -1.59028e-015 3.18055e-015 -0 -3.18055e-015 -3.18055e-015 -3.18055e-015 1.59028e-015 -3.18055e-015 -3.18055e-015 -0.0128429 0.00233349 8.59843e-005 -3.18055e-015 0 -3.18055e-015 1.59028e-015 -3.18055e-015 -3.18055e-015 -0.0160379 0.00299182 0.000853948 8.82781e-031 -1.59028e-014 3.18055e-015 1.59028e-015 -3.18055e-015 -3.18055e-015 -0.0125487 0.00311137 0.00281388 -3.18055e-015 0 -3.18055e-015 1.59028e-015 -3.18055e-015 -3.18055e-015 -1.59028e-015 3.18055e-015 -0 -3.18055e-015 -3.18055e-015 -3.18055e-015 6.94656 -6.93548 15.0141 -68.8647 -68.1214 -71.1472 46.2254 -11.1239 89.8661 72.0953 -21.8218 -2.83101 6.29656e-006 5.22693e-006 4.86665e-006 -1.19859e-005 -4.2272e-006 -1.02319e-005 1.59028e-015 -6.36111e-015 6.36111e-015 6.29656e-006 5.22693e-006 4.86665e-006 0.0129898 0.00232009 -9.55572e-005 -3.18055e-015 0 -0 6.29656e-006 5.22693e-006 4.86665e-006 0.0163422 0.00302966 -0.000875846 7.95139e-015 3.18055e-015 6.36111e-015 6.29656e-006 5.22693e-006 4.86665e-006 0.0145546 0.00366766 -0.00326126 -1.59028e-015 -9.54166e-015 3.18055e-015 6.29656e-006 5.22693e-006 4.86665e-006 -1.19859e-005 -4.2272e-006 -1.02319e-005 1.59028e-015 -6.36111e-015 6.36111e-015 175.554 -83.5016 175.342 -177.654 21.8776 169.45 12.7079 -28.0841 20.9105 3.2481e-007 -3.592e-007 8.85114e-007 -175.418 -83.5268 -175.209 177.666 21.8889 -169.463 -12.7144 -28.0869 -20.916 1.5929e-006 -7.98635e-008 1.01774e-006 
39.8401 13.936 21.6989 -1.59562e-009 64.5987 1.05388e-006 -0.327896 16.4732 -0.0856992 -0.673636 32.9467 -0.0728295 -0.673631 32.9465 -0.0728304 -11.8824 -29.8131 40.27 14.8344 -18.1168 23.2119 -7.14637 -5.98018 -17.0873 75.1335 -64.2339 76.8036 -51.7467 -9.58319 -90.1403 -71.7813 -22.3048 6.59451 8.75816e-006 -4.34064e-006 3.45577e-006 3.18055e-015 -3.18055e-015 -0 6.36111e-015 -9.54166e-015 -0 8.75816e-006 -4.34064e-006 3.45577e-006 -0.0128126 0.00232845 8.1588e-005 -3.18055e-015 3.18055e-015 -3.18055e-015 8.75816e-006 -4.34064e-006 3.45577e-006 -0.0160621 0.00299354 0.000853984 0 1.33548e-006 -0 8.75816e-006 -4.34064e-006 3.45577e-006 -0.0126117 0.00313115 0.00282119 -9.54166e-015 -3.18055e-015 3.18055e-015 8.75816e-006 -4.34064e-006 3.45577e-006 3.18055e-015 -3.18055e-015 -0 6.36111e-015 -9.54166e-015 -0 6.99873 -7.08258 14.8386 -68.8647 -68.1211 -71.1471 46.7188 -11.1515 89.961 72.0203 -21.6711 -3.18176 -1.15427e-005 -2.18281e-006 -4.5846e-006 -8.17761e-006 4.9413e-007 -1.18489e-006 -1.87604e-006 -1.90447e-006 -3.52359e-008 -1.15427e-005 -2.18281e-006 -4.5846e-006 0.012967 0.00231707 -8.639e-005 -7.89055e-006 -1.91526e-006 -7.78455e-006 -1.15427e-005 -2.18281e-006 -4.5846e-006 0.0163911 0.00304205 -0.000869703 -8.83501e-006 1.15346e-006 -5.94468e-006 -1.15427e-005 -2.18281e-006 -4.5846e-006 0.0145439 0.00366796 -0.00325207 4.77083e-015 -3.18055e-015 6.36111e-015 -1.15427e-005 -2.18281e-006 -4.5846e-006 -8.17761e-006 4.9413e-007 -1.18489e-006 -1.87604e-006 -1.90447e-006 -3.52359e-008 175.552 -83.5052 175.339 -177.654 21.8815 169.45 12.7077 -28.0839 20.9103 -1.17426e-006 3.61413e-007 -9.68744e-007 -175.416 -83.5306 -175.206 177.666 21.8928 -169.463 -12.7143 -28.0869 -20.9159 6.12619e-007 1.25808e-007 -1.64004e-006 
39.8401 13.9118 21.6847 -6.52102e-008 64.3735 1.02286e-006 -0.328085 16.5482 -0.0851518 -0.674543 33.0968 -0.0710395 -0.674539 33.0966 -0.0710404 -12.1464 -29.8384 40.1305 14.6563 -17.8879 23.0934 -7.13905 -5.96241 -17.086 75.1337 -64.2341 76.8038 -51.935 -9.58454 -90.1752 -71.6897 -22.1708 6.79958 9.54166e-015 3.18055e-015 3.18055e-015 3.18055e-015 3.18055e-015 6.36111e-015 1.59028e-015 0 -6.36111e-015 9.54166e-015 3.18055e-015 3.18055e-015 -0.0127984 0.00231542 8.21253e-005 3.78329e-006 2.4614e-006 -1.10403e-006 9.54166e-015 3.18055e-015 3.18055e-015 -0.0160662 0.00299284 0.000858462 7.95139e-015 9.54166e-015 1.27222e-014 9.54166e-015 3.18055e-015 3.18055e-015 -0.0125997 0.00312504 0.00283128 0 3.18055e-015 -0 9.54166e-015 3.18055e-015 3.18055e-015 3.18055e-015 3.18055e-015 6.36111e-015 1.59028e-015 0 -6.36111e-015 7.05047 -7.22981 14.6632 -68.8646 -68.1211 -71.1471 47.2119 -11.1781 90.0561 71.9464 -21.5201 -3.53194 3.18055e-015 1.27222e-014 3.18055e-015 3.18055e-015 3.18055e-015 3.18055e-015 3.18055e-015 6.36111e-015 -0 3.18055e-015 1.27222e-014 3.18055e-015 0.0129862 0.00232171 -8.48346e-005 -4.77083e-015 9.54166e-015 -9.54166e-015 3.18055e-015 1.27222e-014 3.18055e-015 0.0163232 0.00303438 -0.000865681 9.54166e-015 -3.18055e-015 3.18055e-015 3.18055e-015 1.27222e-014 3.18055e-015 0.0145719 0.0036765 -0.00325386 -3.18055e-015 1.27222e-014 9.54166e-015 3.18055e-015 1.27222e-014 3.18055e-015 3.18055e-015 3.18055e-015 3.18055e-015 3.18055e-015 6.36111e-015 -0 175.549 -83.5098 175.335 -177.653 21.8862 169.449 12.7075 -28.0838 20.9101 9.13242e-008 -6.60663e-008 -8.41658e-007 -175.414 -83.5332 -175.204 177.666 21.8956 -169.462 -12.7141 -28.0867 -20.9157 -1.60104e-006 -3.4706e-007 -1.00518e-006 
39.8401 13.8878 21.6707 2.96828e-007 64.1484 8.09284e-007 -0.328275 16.6232 -0.0846043 -0.675458 33.2468 -0.0692457 -0.675453 33.2466 -0.0692464 -12.4106 -29.8631 39.9908 14.479 -17.6588 22.9758 -7.13172 -5.94464 -17.0848 75.1335 -64.2339 76.8036 -52.1236 -9.58594 -90.2102 -71.5987 -22.0364 7.00407 -1.27222e-014 0 -6.36111e-015 -1.59028e-015 1.27222e-014 -3.18055e-015 -4.77083e-015 0 -1.90833e-014 -1.27222e-014 0 -6.36111e-015 -0.0128362 0.00232373 8.47315e-005 -1.59028e-015 3.18055e-015 3.18055e-015 -1.27222e-014 0 -6.36111e-015 -0.016087 0.00299862 0.000860794 -3.18055e-015 3.18055e-015 -6.36111e-015 -1.27222e-014 0 -6.36111e-015 -0.0125967 0.00312552 0.00283181 9.54166e-015 0 6.36111e-015 -1.27222e-014 0 -6.36111e-015 -1.59028e-015 1.27222e-014 -3.18055e-015 -4.77083e-015 0 -1.90833e-014 7.10177 -7.37717 14.4879 -68.8647 -68.1211 -71.1471 47.7051 -11.2039 90.1514 71.8736 -21.3687 -3.88148 2.70523e-006 -3.67555e-006 -1.35908e-006 -2.70523e-006 3.67555e-006 1.35908e-006 2.70523e-006 -3.67555e-006 -1.35908e-006 2.70523e-006 -3.67555e-006 -1.35908e-006 0.0129762 0.00231754 -8.86088e-005 4.19096e-006 -2.48863e-008 2.00947e-006 2.70523e-006 -3.67555e-006 -1.35908e-006 0.0163168 0.00303036 -0.000869091 1.11319e-014 3.18055e-015 -6.36111e-015 2.70523e-006 -3.67555e-006 -1.35908e-006 0.0145704 0.0036769 -0.00326333 6.36111e-015 -6.36111e-015 6.36111e-015 2.70523e-006 -3.67555e-006 -1.35908e-006 -2.70523e-006 3.67555e-006 1.35908e-006 2.70523e-006 -3.67555e-006 -1.35908e-006 175.545 -83.5156 175.331 -177.653 21.8922 169.449 12.7073 -28.0837 20.9099 -3.18055e-015 3.02701e-009 -3.08116e-015 -175.409 -83.5402 -175.199 177.666 21.9027 -169.461 -12.7139 -28.0866 -20.9155 -5.11496e-007 -7.70667e-008 8.02695e-007 
